<svg xmlns="http://www.w3.org/2000/svg" xmlns:xlink="http://www.w3.org/1999/xlink" version="1.1" x="0px" y="0px" viewBox="0 0 34 42.5" enable-background="new 0 0 34 34" xml:space="preserve"><g><path d="M31,30V3c0-1.1-0.9-2-2-2h-2.5C26.8,1.6,27,2.3,27,3v27h-2V3c0-1.1-0.9-2-2-2h-4c-1.1,0-2,0.9-2,2v1h-2c-1.7,0-3,1.3-3,3v3   h-1c-1.7,0-3,1.3-3,3v3H5c-1.1,0-2,0.9-2,2v12H1v3h32v-3H31z M17,30h-2V18c0-1.1-0.9-2-2-2h-3v-3c0-0.6,0.4-1,1-1h6V30z M17,10h-3   V7c0-0.6,0.4-1,1-1h2V10z"/></g><text x="0" y="49" fill="#000000" font-size="5px" font-weight="bold" font-family="'Helvetica Neue', Helvetica, Arial-Unicode, Arial, Sans-serif">Created by Vectors Market</text><text x="0" y="54" fill="#000000" font-size="5px" font-weight="bold" font-family="'Helvetica Neue', Helvetica, Arial-Unicode, Arial, Sans-serif">from the Noun Project</text></svg>