<svg xmlns="http://www.w3.org/2000/svg" xmlns:xlink="http://www.w3.org/1999/xlink" version="1.1" x="0px" y="0px" viewBox="0 0 100 125" enable-background="new 0 0 100 100" xml:space="preserve"><rect x="5.486" y="88.203" width="90" height="2.092"/><path d="M30.432,50.437h5.674l0.462,12.555H29.97L30.432,50.437z M29.854,66.13h6.83l-0.077-2.092h-6.676L29.854,66.13z   M31.027,34.29l-0.441,11.962h5.366L35.512,34.29H31.027z M30.471,49.391h5.597l-0.077-2.092h-5.443L30.471,49.391z M29.445,77.245  h7.649l-0.371-10.069h-6.907L29.445,77.245z"/><path d="M76.118,51.992H64.568c0.078,1.155,0.25,3.841,0.298,5.603c0.104,3.456-0.344,7.119-1.299,10.889h5.188v6.146h3.574v-0.458  c0-0.289,0.234-0.523,0.523-0.523c0.289,0,0.523,0.234,0.523,0.523v0.458h5.745c-2.287-6.385-3.436-12.264-3.302-17.035  C75.875,55.831,76.044,53.146,76.118,51.992z M73.058,63.587c-0.302-2.161-0.428-4.207-0.375-6.082  c0.028-0.866,0.081-1.926,0.135-2.927c0.016-0.288,0.237-0.511,0.551-0.493c0.288,0.015,0.51,0.262,0.493,0.551  c-0.054,0.993-0.105,2.044-0.133,2.901c-0.052,1.814,0.07,3.803,0.365,5.905c0.04,0.286-0.159,0.551-0.445,0.591  c-0.025,0.003-0.049,0.005-0.074,0.005C73.318,64.038,73.094,63.849,73.058,63.587z M74.904,69.961  c-0.044,0.011-0.088,0.016-0.131,0.016c-0.233,0-0.445-0.156-0.507-0.392c-0.248-0.962-0.472-1.924-0.664-2.857  c-0.059-0.283,0.124-0.559,0.407-0.617c0.271-0.062,0.56,0.123,0.617,0.407c0.189,0.915,0.409,1.859,0.654,2.805  C75.351,69.604,75.184,69.889,74.904,69.961z"/><path d="M18.409,87.184h29.423v-8.892H18.409V87.184z M22.463,80.645h21.316v1.046H22.463V80.645z M22.463,83.784h21.316v1.046  H22.463V83.784z"/><path d="M55.556,57.593c0.048-1.761,0.22-4.446,0.297-5.601H44.304c0.049,0.733,0.136,2.081,0.206,3.419  c0.003,0.034,0.008,0.066,0.005,0.099c0.038,0.737,0.07,1.468,0.087,2.085c0.104,3.456-0.344,7.119-1.298,10.889h13.549  C55.899,64.71,55.45,61.047,55.556,57.593z M53.304,59.889c0.014,0.288-0.208,0.533-0.498,0.547  c-0.008,0.001-0.016,0.001-0.025,0.001c-0.278,0-0.509-0.219-0.522-0.499c-0.04-0.836-0.049-1.654-0.028-2.432  c0.028-0.867,0.081-1.927,0.135-2.928c0.016-0.288,0.243-0.511,0.551-0.493c0.288,0.015,0.51,0.262,0.493,0.551  c-0.054,0.993-0.105,2.044-0.133,2.901C53.257,58.287,53.266,59.079,53.304,59.889z"/><path d="M53.714,44.276c0-0.295,0.24-0.535,0.535-0.535c0.295,0,0.535,0.24,0.535,0.535c0,0.295-0.24,0.535-0.535,0.535  C53.954,44.811,53.714,44.571,53.714,44.276z M58.804,39.58c0.5,0,0.905-0.406,0.905-0.905c0-0.499-0.406-0.905-0.905-0.905  c-0.5,0-0.905,0.406-0.905,0.905C57.898,39.174,58.304,39.58,58.804,39.58z M29.396,50.161c-0.801,0.514-1.731,0.795-2.715,0.795  c-1.441,0-2.833-0.617-3.82-1.692c-0.095-0.104-0.228-0.164-0.368-0.169c-0.14-0.015-0.277,0.046-0.379,0.145  c-1.137,1.087-2.641,1.686-4.232,1.686c-3.398,0-6.162-2.769-6.162-6.172c0-0.913,0.198-1.792,0.587-2.611  c0.068-0.144,0.068-0.312-0.002-0.455c-0.07-0.143-0.202-0.247-0.359-0.281c-3.744-0.816-6.462-4.2-6.462-8.046  c0-4.294,3.348-7.897,7.623-8.203c0.175-0.012,0.333-0.112,0.419-0.266c0.086-0.153,0.089-0.34,0.008-0.496  c-0.413-0.796-0.622-1.669-0.622-2.595c0-3.196,2.604-5.795,5.806-5.795c1.332,0,2.579,0.437,3.606,1.265  c0.141,0.113,0.332,0.146,0.503,0.086c0.172-0.061,0.298-0.206,0.337-0.383c0.744-3.471,3.868-5.989,7.428-5.989  c3.714,0,6.858,2.65,7.476,6.302c0.03,0.174,0.144,0.321,0.305,0.392c0.16,0.069,0.346,0.055,0.495-0.04  c0.536-0.348,1.154-0.533,1.787-0.533c1.783,0,3.232,1.45,3.234,3.202l-0.01,0.178c-0.011,0.194,0.086,0.379,0.253,0.479  c0.167,0.101,0.376,0.099,0.54-0.002c1.376-0.839,3.217-0.793,4.533,0.083c0.148,0.098,0.331,0.115,0.493,0.047  c0.161-0.068,0.278-0.213,0.311-0.386c0.507-2.693,2.865-4.647,5.606-4.647c1.863,0,3.603,0.905,4.655,2.421  c0.089,0.128,0.231,0.21,0.386,0.223c0.154,0.015,0.309-0.044,0.418-0.155c1.573-1.606,3.677-2.49,5.924-2.49  c4.563,0,8.275,3.712,8.275,8.275c0,1.072-0.198,2.104-0.588,3.067c-0.067,0.165-0.046,0.353,0.057,0.499  c0.103,0.146,0.276,0.224,0.451,0.221c0.644-0.025,1.262,0.12,1.812,0.426c1.003,0.563,1.659,1.575,1.754,2.705  c0.013,0.159,0.099,0.303,0.232,0.392c0.133,0.088,0.298,0.11,0.452,0.062c1.407-0.46,2.889-0.317,4.175,0.399  c2.055,1.143,3.104,3.529,2.551,5.801c-0.038,0.155-0.003,0.319,0.095,0.445c0.098,0.126,0.248,0.2,0.409,0.202  c1.137,0.01,2.255,0.305,3.234,0.855c1.557,0.863,2.684,2.281,3.174,3.994c0.492,1.717,0.284,3.523-0.583,5.086  c-1.157,2.074-3.263,3.354-5.637,3.425c-0.15,0.005-0.291,0.074-0.387,0.19c-0.096,0.115-0.138,0.267-0.114,0.416  c0.188,1.184-0.022,2.366-0.609,3.418c-1.453,2.601-4.76,3.545-7.376,2.099c-0.569-0.318-1.065-0.73-1.472-1.225  c-0.002-0.002-0.005-0.003-0.006-0.005c0.097-2.26,0.3-5.263,0.303-5.297l0.038-0.559H63.446l0.04,0.56  c0.003,0.038,0.273,3.854,0.334,6.12c0.044,1.457-0.034,2.96-0.185,4.485c-0.366,0.033-0.735,0.041-1.103-0.004  c-1.462-0.178-2.745-0.936-3.612-2.135c-0.094-0.13-0.242-0.209-0.402-0.217c-0.158,0.004-0.314,0.061-0.419,0.182  c-0.38,0.44-0.871,0.774-1.419,0.972c-0.073-1.112-0.112-2.212-0.079-3.285c0.061-2.264,0.33-6.08,0.333-6.118l0.04-0.56H43.183  l0.04,0.56c0.002,0.026,0.124,1.76,0.223,3.581c-0.594,0.166-1.221,0.206-1.838,0.1c-1.742-0.296-3.144-1.664-3.488-3.404  c0-0.002-0.002-0.003-0.002-0.005c-0.013-0.064-0.038-0.123-0.076-0.18c-0.003-0.005-0.007-0.009-0.01-0.014  c-0.02-0.028-0.034-0.059-0.06-0.084c-0.072-0.069-0.161-0.105-0.252-0.124c-0.006-0.001-0.012-0.003-0.018-0.004  c-0.055-0.009-0.11-0.009-0.165-0.001c-0.011,0.001-0.021-0.002-0.032,0c-0.004,0.001-0.008,0.004-0.012,0.005  c-0.054,0.013-0.105,0.035-0.154,0.064c-0.009,0.005-0.02,0.008-0.029,0.013c-0.001,0.001-0.003,0.001-0.004,0.002  c-0.039,0.026-0.074,0.045-0.112,0.069l-0.655-17.778l-0.019-0.504h-6.5L29.396,50.161z M56.852,38.675  c0,1.076,0.876,1.951,1.951,1.951c1.076,0,1.951-0.876,1.951-1.951s-0.876-1.951-1.951-1.951  C57.728,36.723,56.852,37.599,56.852,38.675z M52.668,44.276c0,0.872,0.709,1.581,1.582,1.581c0.872,0,1.582-0.709,1.582-1.581  c0-0.872-0.709-1.582-1.582-1.582C53.377,42.694,52.668,43.404,52.668,44.276z"/><path d="M73.375,80.907v0.458c0,0.289-0.234,0.523-0.523,0.523c-0.289,0-0.523-0.234-0.523-0.523v-0.458h-3.574v6.277h14.573  c-0.362-1.124-1.138-3.524-2.05-6.277H73.375z"/><path d="M38.142,77.245h10.737v9.939h18.831V69.53H37.857L38.142,77.245z M61.874,72.262h1.759v2.629h-1.759V72.262z M61.874,77.272  h1.759V79.9h-1.759V77.272z M61.874,81.678h1.759v2.629h-1.759V81.678z M56.905,72.262h1.759v2.629h-1.759V72.262z M56.905,77.272  h1.759V79.9h-1.759V77.272z M56.905,81.678h1.759v2.629h-1.759V81.678z M51.968,72.262h1.759v2.629h-1.759V72.262z M51.968,77.272  h1.759V79.9h-1.759V77.272z M51.968,81.678h1.759v2.629h-1.759V81.678z M47.097,72.262h1.759v2.629h-1.759V72.262z M42.16,72.262  h1.759v2.629H42.16V72.262z"/><path d="M68.755,75.676h3.574v4.185h-3.574V75.676z M87.586,87.184h4.185v-2.703h-4.185V87.184z M92.282,82.402h-0.511v-2.978  c0-2.067-1.681-3.747-3.747-3.747H73.375v4.185h12.687c0.841,0,1.524,0.683,1.524,1.524v1.017h-0.454  c-0.289,0-0.523,0.234-0.523,0.523s0.234,0.523,0.523,0.523h5.149c0.289,0,0.523-0.234,0.523-0.523S92.571,82.402,92.282,82.402z"/><path d="M13.034,74.107c-0.642,0-1.164,0.522-1.164,1.165v5.093H8.732v-5.996c0-1.875,1.525-3.4,3.4-3.4h9.154  c1.875,0,3.4,1.525,3.4,3.4v2.877h-3.139v-1.974c0-0.643-0.522-1.165-1.165-1.165H13.034z M12.488,81.342H8.131  c-0.289,0-0.523,0.234-0.523,0.523c0,0.289,0.234,0.523,0.523,0.523h0.601v4.796h3.139v-4.796h0.618  c0.289,0,0.523-0.234,0.523-0.523C13.011,81.576,12.777,81.342,12.488,81.342z"/><text x="0" y="115" fill="#000000" font-size="5px" font-weight="bold" font-family="'Helvetica Neue', Helvetica, Arial-Unicode, Arial, Sans-serif">Created by Laymik</text><text x="0" y="120" fill="#000000" font-size="5px" font-weight="bold" font-family="'Helvetica Neue', Helvetica, Arial-Unicode, Arial, Sans-serif">from the Noun Project</text></svg>