<svg xmlns="http://www.w3.org/2000/svg" xmlns:xlink="http://www.w3.org/1999/xlink" version="1.1" x="0px" y="0px" viewBox="0 0 72 90" enable-background="new 0 0 72 72" xml:space="preserve"><path fill="#000000" d="M70.2,64.9h-1.7c-0.7,0-1.3-0.5-1.3-1.2V50.4c0-0.7-0.6-1.2-1.3-1.2h-0.7c-0.5,0-0.8-0.3-0.8-0.8V28.3  c0-0.1,0.1-0.1,0.1-0.2l1.5-3.7c0.3-0.7-0.1-1.5-0.9-1.8L31.5,10.7c-0.7-0.2-1.1-0.9-1-1.6l1-5.7c0.1-0.6-0.2-1.2-0.9-1.4l-4.1-1.4  c-0.6-0.2-1.4,0-1.7,0.5l-5.8,8.5c-0.1,0.1-0.1,0.3-0.2,0.4L17,20c-0.1,0.6,0.2,1.2,0.9,1.4l4.1,1.4c0.6,0.2,1.4,0,1.7-0.5l3.4-4.9  c0.4-0.6,1.2-0.8,1.8-0.6l5.9,2.1c0,0.2-0.1,0.3-0.1,0.5l-3.5,44.2c0,0.6-0.6,1.1-1.3,1.1h-28c-0.7,0-1.3,0.5-1.3,1.2v4.2  c0,0.7,0.6,1.2,1.3,1.2h68.4c0.7,0,1.3-0.5,1.3-1.2v-4.2C71.5,65.4,70.9,64.9,70.2,64.9z M39.1,28.6C39.1,28.5,39.1,28.5,39.1,28.6  c0-0.1,0-0.1,0-0.1l6.5-5.3c0.3-0.2,0.6,0,0.7,0.5l0.9,11.8c0,0.5-0.4,0.9-0.7,0.6L39.1,28.6z M45,39C45,39,45,39.1,45,39  c0.1,0.1,0,0.1-0.1,0.1l-8.8,5.5c-0.3,0.2-0.6-0.2-0.6-0.6l1-12.3c0-0.5,0.4-0.7,0.7-0.4L45,39z M47.3,41.9c0.3-0.2,0.6,0.1,0.6,0.5  l0.9,10.4c0,0.5-0.3,0.8-0.6,0.6L39,47.1L47.3,41.9z M42,21.6C42,21.7,42,21.7,42,21.6l-4.3,3.6c-0.3,0.3-0.7-0.1-0.7-0.6l0.3-3.5  c0-0.3,0.2-0.6,0.4-0.6H39L42,21.6z M33.9,63.4l1-13.9c0-0.4,0.4-0.7,0.6-0.5L45.8,56c0.4,0.3,0.4,0.8,0,1.1L34.5,64  C34.2,64.2,33.9,63.9,33.9,63.4z M48.3,64.9h-6.7c-0.5,0-0.7-0.6-0.3-0.8l7.4-4.5c0.3-0.2,0.6,0.1,0.6,0.5l0.3,3.5  C49.6,64.3,49,64.9,48.3,64.9z M57.3,51.2v12.5c0,0.7-0.6,1.2-1.3,1.2h-2.3c-0.7,0-1.3-0.5-1.3-1.1l-3.1-38.4c0-0.6,0.6-1,1.1-0.8  l9,3.2c0.5,0.2,0.9,0.7,0.9,1.2v19.4c0,0.4-0.4,0.8-0.8,0.8l0,0C58.3,49.2,57.3,50.1,57.3,51.2z"/><text x="0" y="87" fill="#000000" font-size="5px" font-weight="bold" font-family="'Helvetica Neue', Helvetica, Arial-Unicode, Arial, Sans-serif">Created by Creative Stall</text><text x="0" y="92" fill="#000000" font-size="5px" font-weight="bold" font-family="'Helvetica Neue', Helvetica, Arial-Unicode, Arial, Sans-serif">from the Noun Project</text></svg>